<svg width="437" height="82" viewBox="0 0 437 82" fill="none" xmlns="http://www.w3.org/2000/svg">
<g filter="url(#filter0_d_1_10)">
<path d="M11.256 4.592C12.024 4.592 12.6213 5.12533 13.048 6.192C11.2133 11.056 10.296 17.392 10.296 25.2V32.176H10.424C12.8133 29.7867 16.504 22.4053 21.496 10.032C22.776 8.41066 23.7573 7.6 24.44 7.6H24.696C25.4213 7.6 25.9973 8.00533 26.424 8.816V10.032C25.2293 10.7573 22.3067 16.7947 17.656 28.144L12.408 36.016V36.144C17.2293 41.136 22.2427 43.632 27.448 43.632H29.88C31.4587 43.632 32.5253 43.4827 33.08 43.184C34.232 43.6533 34.808 44.336 34.808 45.232V45.744C34.808 46.8107 32.952 47.344 29.24 47.344H28.28C22.1787 47.344 16.3547 44.8267 10.808 39.792H10.424V47.216C10.424 48.6667 9.76267 49.392 8.44 49.392C7.24533 49.392 6.648 48.6667 6.648 47.216V39.6C5.06933 38.4053 4.28 37.1253 4.28 35.76C4.28 34.608 5.00533 34.032 6.456 34.032V24.944C6.456 16.6667 7.52267 10.096 9.656 5.232C10.2107 4.80533 10.744 4.592 11.256 4.592ZM42.7615 12.656C44.3828 12.9973 45.1935 13.7227 45.1935 14.832C44.7668 16.0267 44.0842 16.624 43.1455 16.624C41.5668 16.3253 40.7775 15.536 40.7775 14.256C41.2042 13.1893 41.8655 12.656 42.7615 12.656ZM45.1935 21.616C45.8762 21.616 46.4522 22.2347 46.9215 23.472L46.3455 28.016V31.024C46.3455 34.5227 46.9428 39.1093 48.1375 44.784C47.7108 45.5947 46.9855 46 45.9615 46C44.2122 46 43.0602 40.88 42.5055 30.64V28.4C42.5055 23.8773 43.4015 21.616 45.1935 21.616ZM63.591 24.432C67.2177 24.7307 69.031 26.5013 69.031 29.744L69.159 30.576L69.031 40.56C69.031 41.712 69.6923 43.2693 71.015 45.232V45.36C70.6737 46.5973 70.055 47.216 69.159 47.216C66.5137 46.1067 65.191 43.76 65.191 40.176V39.344L64.999 39.216L65.191 38.96V38.832L65.383 30C65.383 28.7627 64.8497 28.144 63.783 28.144H63.015C60.8817 28.9973 59.815 33.6693 59.815 42.16C59.815 45.104 59.0683 46.576 57.575 46.576C56.423 46.576 55.8257 45.8507 55.783 44.4V38C55.783 29.7227 56.5083 25.584 57.959 25.584L58.599 25.392L59.943 25.584C61.095 24.816 62.311 24.432 63.591 24.432ZM87.165 21.424C89.1277 21.424 90.109 22.3627 90.109 24.24C90.365 24.24 90.493 24.56 90.493 25.2H90.749L90.493 27.056L90.749 39.984L90.365 50.224C94.205 50.224 96.7863 53.04 98.109 58.672C98.109 59.824 97.3197 60.4853 95.741 60.656C95.0157 60.656 94.205 59.056 93.309 55.856C92.4557 54.6187 91.4743 54 90.365 54H90.109C88.7437 63.088 87.549 67.632 86.525 67.632C85.2877 69.8933 83.4957 71.024 81.149 71.024C77.693 70.2133 75.965 68.4853 75.965 65.84V65.456C75.965 61.4453 78.8237 57.0933 84.541 52.4L86.525 51.184L86.781 44.272V42.672H86.525C85.0743 44.5067 83.6877 45.424 82.365 45.424H81.981C79.037 45.424 77.3517 43.1627 76.925 38.64V37.232C76.925 31.7707 78.9303 27.0347 82.941 23.024C84.1783 21.9573 85.5863 21.424 87.165 21.424ZM80.765 36.4V39.472C80.9357 40.88 81.2557 41.584 81.725 41.584H82.365C83.5597 41.584 85.0317 37.1893 86.781 28.4V25.2C84.221 25.2 82.2157 28.9333 80.765 36.4ZM79.741 65.584C79.9117 66.6507 80.509 67.184 81.533 67.184C83.581 67.184 85.053 63.536 85.949 56.24H85.565C81.6823 59.6107 79.741 62.7253 79.741 65.584ZM110.815 20.08C111.967 20.08 112.756 22.0213 113.183 25.904C112.756 26.9707 112.052 27.504 111.071 27.504C110.388 27.376 109.706 26.5867 109.023 25.136L107.871 24.752C105.866 24.752 104.052 26.0747 102.431 28.72V29.296C102.431 29.936 105.439 31.0027 111.455 32.496C113.972 33.9893 115.231 35.8027 115.231 37.936C115.231 41.4347 112.415 44.4213 106.783 46.896L104.415 47.28C100.831 46.896 99.039 45.104 99.039 41.904V41.712C99.039 40.688 99.7003 40.0907 101.023 39.92C102.047 39.92 102.73 40.9867 103.071 43.12L103.583 43.504H104.671C107.103 43.504 109.364 41.84 111.455 38.512V37.68C111.455 36.4 108.66 35.2053 103.071 34.096C100.127 32.9013 98.655 31.2373 98.655 29.104C98.655 26.3307 100.98 23.728 105.631 21.296C107.679 21.04 109.407 20.6347 110.815 20.08ZM128.968 7.152C130.163 7.408 130.76 8.00533 130.76 8.944L130.376 11.76V12.592C130.376 14.4693 130.589 16.4533 131.016 18.544H131.144C136.093 17.0507 139.165 16.304 140.36 16.304C141.597 16.6453 142.216 17.264 142.216 18.16C142.216 19.6107 140.744 20.336 137.8 20.336L131.144 22.704C131.144 28.464 131.763 36.2933 133 46.192C132.744 47.344 132.125 47.92 131.144 47.92H131.016C129.523 47.92 128.776 46 128.776 42.16C128.221 39.3013 127.752 33.0933 127.368 23.536H126.216C122.205 23.28 120.2 22.3413 120.2 20.72C120.2 20.2507 120.648 19.6747 121.544 18.992H122.184L125.128 19.76H127.176L126.6 11.76C126.6 8.688 127.389 7.152 128.968 7.152ZM158.246 21.872C161.403 21.872 163.793 24.2187 165.414 28.912L165.67 30.256C165.67 34.8213 163.537 39.4933 159.27 44.272C157.563 45.8507 155.835 46.64 154.086 46.64C151.526 46.64 149.713 45.168 148.646 42.224C148.262 40.8587 148.07 39.664 148.07 38.64V37.872C148.07 31.1307 150.523 26.0107 155.43 22.512C156.283 22.0853 157.222 21.872 158.246 21.872ZM151.846 38.512C151.846 41.4133 152.593 42.864 154.086 42.864C157.201 42.864 159.782 38.8747 161.83 30.896V29.68C161.105 27.0347 159.761 25.712 157.798 25.712C157.03 25.712 156.646 26.2453 156.646 27.312C156.646 28.0373 155.793 28.6133 154.086 29.04C152.593 31.5573 151.846 34.7147 151.846 38.512ZM180.666 24.432C184.293 24.7307 186.106 26.5013 186.106 29.744L186.234 30.576L186.106 40.56C186.106 41.712 186.767 43.2693 188.09 45.232V45.36C187.749 46.5973 187.13 47.216 186.234 47.216C183.589 46.1067 182.266 43.76 182.266 40.176V39.344L182.074 39.216L182.266 38.96V38.832L182.458 30C182.458 28.7627 181.925 28.144 180.858 28.144H180.09C177.957 28.9973 176.89 33.6693 176.89 42.16C176.89 45.104 176.143 46.576 174.65 46.576C173.498 46.576 172.901 45.8507 172.858 44.4V38C172.858 29.7227 173.583 25.584 175.034 25.584L175.674 25.392L177.018 25.584C178.17 24.816 179.386 24.432 180.666 24.432ZM237.005 0.175999C240.461 0.175999 244.728 2.43733 249.805 6.96C256.717 14.9813 260.173 23.3013 260.173 31.92C260.173 40.496 255.97 46.3627 247.565 49.52L245.773 49.776C241.25 49.776 237.709 46.4907 235.149 39.92H235.021C233.528 45.2533 231.522 47.92 229.005 47.92H228.621C225.293 47.92 223.01 41.648 221.773 29.104V25.392C221.858 20.9547 223.117 18.416 225.549 17.776C226.232 17.776 226.85 18.4373 227.405 19.76C226.168 21.4667 225.549 23.472 225.549 25.776V26.352C225.549 34.2453 226.701 40.112 229.005 43.952C230.712 42.7147 231.97 37.6373 232.781 28.72C232.781 21.5093 233.314 17.904 234.381 17.904L235.021 17.776C236.429 17.776 237.133 19.1627 237.133 21.936L236.749 28.976C236.749 33.712 238.221 38.64 241.165 43.76C242.616 45.2107 244.088 45.936 245.581 45.936C248.013 45.936 250.616 44.4213 253.389 41.392C255.352 38.7893 256.333 35.504 256.333 31.536C256.333 22.7467 252.472 14.6827 244.749 7.344C242.744 5.72267 239.672 4.4 235.533 3.376L235.021 2.16C235.32 0.837331 235.981 0.175999 237.005 0.175999ZM272.251 23.024C273.958 23.0667 276.838 26.0533 280.891 31.984L281.019 33.072C281.019 34.2667 278.096 35.184 272.251 35.824L272.059 36.016V36.272C272.955 40.112 273.894 42.032 274.875 42.032H275.643C277.008 42.032 279.078 40.56 281.851 37.616H282.235C283.088 37.616 283.75 38.2347 284.219 39.472C284.219 40.496 282.427 42.2667 278.843 44.784C277.904 45.3387 276.774 45.744 275.451 46C271.995 46 269.584 42.7573 268.219 36.272C266.256 35.9733 265.275 35.1627 265.275 33.84C265.275 32.9013 266 32.2827 267.451 31.984V32.24L268.091 31.984V30.384C268.091 25.4773 269.478 23.024 272.251 23.024ZM272.635 27.632H272.059L271.803 30V31.984H272.059C274.448 31.8987 275.643 31.6427 275.643 31.216C274.534 29.552 273.531 28.3573 272.635 27.632ZM291.03 15.6C293.249 15.6 294.678 19.952 295.318 28.656L295.702 30.64C297.665 26.6293 299.265 24.624 300.502 24.624C300.502 24.4533 300.95 24.3253 301.846 24.24H302.102C304.918 24.24 306.71 26.4373 307.478 30.832V31.024C307.478 34.7787 305.601 38.9173 301.846 43.44C300.268 45.1467 298.54 46 296.662 46C294.529 45.5307 293.462 44.464 293.462 42.8L290.262 19.824L289.302 17.456C289.302 16.688 289.878 16.0693 291.03 15.6ZM297.686 41.584H297.878C300.097 40.688 302.038 37.6373 303.702 32.432V30C303.318 28.6773 302.828 28.016 302.23 28.016H301.718C299.841 29.1253 298.497 33.648 297.686 41.584ZM348.079 10.032C349.828 8.02666 351.706 7.024 353.711 7.024C355.716 7.024 356.911 8.56 357.295 11.632V11.824C357.295 13.36 356.42 16.7093 354.671 21.872L357.679 21.232C361.348 21.232 363.482 23.5787 364.079 28.272V29.232C364.079 34.864 360.538 40.0053 353.455 44.656C351.151 45.552 349.487 46 348.463 46C345.007 46 342.618 43.9947 341.295 39.984C341.38 39.5147 341.914 38.8533 342.895 38C343.364 18.7147 343.77 9.072 344.111 9.072C344.836 8.34666 345.498 7.984 346.095 7.984C347.247 8.41066 347.823 9.09333 347.823 10.032H348.079ZM347.439 27.632H347.695C351.194 21.0187 353.05 15.8987 353.263 12.272V10.8H352.623C351.727 10.8 350.532 13.2107 349.039 18.032C347.972 22.5973 347.439 25.7973 347.439 27.632ZM349.871 31.6L348.911 31.984L347.311 31.856V31.984L347.055 32.816V39.472L346.863 41.84L348.271 42.224C351.898 42.224 355.482 39.4933 359.023 34.032C360.004 31.6 360.495 29.5947 360.495 28.016C360.495 26.0533 359.556 25.072 357.679 25.072H357.423C355.375 25.072 352.858 27.248 349.871 31.6ZM380.716 21.872C383.873 21.872 386.263 24.2187 387.884 28.912L388.14 30.256C388.14 34.8213 386.007 39.4933 381.74 44.272C380.033 45.8507 378.305 46.64 376.556 46.64C373.996 46.64 372.183 45.168 371.116 42.224C370.732 40.8587 370.54 39.664 370.54 38.64V37.872C370.54 31.1307 372.993 26.0107 377.9 22.512C378.753 22.0853 379.692 21.872 380.716 21.872ZM374.316 38.512C374.316 41.4133 375.063 42.864 376.556 42.864C379.671 42.864 382.252 38.8747 384.3 30.896V29.68C383.575 27.0347 382.231 25.712 380.268 25.712C379.5 25.712 379.116 26.2453 379.116 27.312C379.116 28.0373 378.263 28.6133 376.556 29.04C375.063 31.5573 374.316 34.7147 374.316 38.512ZM396.864 26.8C398.357 26.8 399.381 30.0853 399.936 36.656C400.661 39.6853 401.195 41.2 401.536 41.2H401.92C402.987 38.512 403.52 35.8453 403.52 33.2L403.136 28.784C403.605 27.632 404.267 27.056 405.12 27.056C406.699 27.056 407.488 29.8507 407.488 35.44C408.427 41.2427 408.896 46.64 408.896 51.632V54.64C408.896 63.8133 406.293 70 401.088 73.2L399.68 73.456C397.248 73.456 394.987 71.1947 392.896 66.672L392.32 62.832V62.64C392.32 59.824 393.109 58.416 394.688 58.416L396.288 59.44L396.096 63.472C396.096 65.4347 397.099 67.4187 399.104 69.424H399.936C402.283 69.424 404.011 64.944 405.12 55.984L405.248 52.272C405.205 47.9627 405.035 45.2107 404.736 44.016C403.029 45.5093 401.685 46.256 400.704 46.256C398.528 46.256 396.587 40.432 394.88 28.784L394.688 28.656C394.688 27.6747 395.413 27.056 396.864 26.8ZM428.458 20.08C429.61 20.08 430.399 22.0213 430.826 25.904C430.399 26.9707 429.695 27.504 428.714 27.504C428.031 27.376 427.348 26.5867 426.666 25.136L425.514 24.752C423.508 24.752 421.695 26.0747 420.074 28.72V29.296C420.074 29.936 423.082 31.0027 429.098 32.496C431.615 33.9893 432.874 35.8027 432.874 37.936C432.874 41.4347 430.058 44.4213 424.426 46.896L422.058 47.28C418.474 46.896 416.682 45.104 416.682 41.904V41.712C416.682 40.688 417.343 40.0907 418.666 39.92C419.69 39.92 420.372 40.9867 420.714 43.12L421.226 43.504H422.314C424.746 43.504 427.007 41.84 429.098 38.512V37.68C429.098 36.4 426.303 35.2053 420.714 34.096C417.77 32.9013 416.298 31.2373 416.298 29.104C416.298 26.3307 418.623 23.728 423.274 21.296C425.322 21.04 427.05 20.6347 428.458 20.08Z" fill="#5D6EC7"/>
</g>
<defs>
<filter id="filter0_d_1_10" x="0.279999" y="0.175995" width="436.594" height="81.28" filterUnits="userSpaceOnUse" color-interpolation-filters="sRGB">
<feFlood flood-opacity="0" result="BackgroundImageFix"/>
<feColorMatrix in="SourceAlpha" type="matrix" values="0 0 0 0 0 0 0 0 0 0 0 0 0 0 0 0 0 0 127 0" result="hardAlpha"/>
<feOffset dy="4"/>
<feGaussianBlur stdDeviation="2"/>
<feComposite in2="hardAlpha" operator="out"/>
<feColorMatrix type="matrix" values="0 0 0 0 0 0 0 0 0 0 0 0 0 0 0 0 0 0 0.25 0"/>
<feBlend mode="normal" in2="BackgroundImageFix" result="effect1_dropShadow_1_10"/>
<feBlend mode="normal" in="SourceGraphic" in2="effect1_dropShadow_1_10" result="shape"/>
</filter>
</defs>
</svg>
